<svg width="100" height="100" viewBox="0 0 100 100" fill="none" xmlns="http://www.w3.org/2000/svg">
  <!-- Circle Background -->
  <circle
    cx="50"
    cy="50"
    r="48"
    stroke="url(#circleGradient)"
    stroke-width="3"
    fill="rgba(99, 102, 241, 0.1)"
  />

  <!-- Rocket Body -->
  <g transform="translate(50, 50) rotate(45)">
    <!-- Main rocket body -->
    <path
      d="M 0,-25 L 6,-10 L 6,10 L 0,15 L -6,10 L -6,-10 Z"
      fill="url(#rocketGradient)"
    />

    <!-- Rocket nose cone -->
    <path
      d="M 0,-30 L 6,-25 L -6,-25 Z"
      fill="#94a3b8"
    />

    <!-- Rocket window -->
    <circle
      cx="0"
      cy="-15"
      r="3"
      fill="#1e293b"
      opacity="0.5"
    />

    <!-- Left fin -->
    <path
      d="M -6,5 L -12,12 L -6,10 Z"
      fill="#6366f1"
    />

    <!-- Right fin -->
    <path
      d="M 6,5 L 12,12 L 6,10 Z"
      fill="#6366f1"
    />

    <!-- Flame/exhaust -->
    <g transform="translate(0, 15)">
      <ellipse cx="0" cy="3" rx="4" ry="6" fill="#f59e0b" opacity="0.8" />
      <ellipse cx="0" cy="5" rx="3" ry="5" fill="#fbbf24" opacity="0.9" />
      <ellipse cx="0" cy="7" rx="2" ry="3" fill="#fde047" opacity="1" />
    </g>

    <!-- Stars/sparkles -->
    <circle cx="-15" cy="-20" r="1" fill="#fbbf24" opacity="0.8" />
    <circle cx="15" cy="-25" r="1.5" fill="#a78bfa" opacity="0.7" />
    <circle cx="-20" cy="-10" r="1" fill="#60a5fa" opacity="0.6" />
  </g>

  <!-- Gradients -->
  <defs>
    <linearGradient id="circleGradient" x1="0%" y1="0%" x2="100%" y2="100%">
      <stop offset="0%" style="stop-color:#6366f1;stop-opacity:1" />
      <stop offset="50%" style="stop-color:#8b5cf6;stop-opacity:1" />
      <stop offset="100%" style="stop-color:#a78bfa;stop-opacity:1" />
    </linearGradient>

    <linearGradient id="rocketGradient" x1="0%" y1="0%" x2="0%" y2="100%">
      <stop offset="0%" style="stop-color:#e0e7ff;stop-opacity:1" />
      <stop offset="50%" style="stop-color:#c7d2fe;stop-opacity:1" />
      <stop offset="100%" style="stop-color:#a5b4fc;stop-opacity:1" />
    </linearGradient>
  </defs>
</svg>
